<?xml version="1.0" encoding="UTF-8" standalone="no"?>
<!-- Created with Inkscape (http://www.inkscape.org/) -->

<svg
   xmlns:dc="http://purl.org/dc/elements/1.1/"
   xmlns:cc="http://creativecommons.org/ns#"
   xmlns:rdf="http://www.w3.org/1999/02/22-rdf-syntax-ns#"
   xmlns:svg="http://www.w3.org/2000/svg"
   xmlns="http://www.w3.org/2000/svg"
   xmlns:sodipodi="http://sodipodi.sourceforge.net/DTD/sodipodi-0.dtd"
   xmlns:inkscape="http://www.inkscape.org/namespaces/inkscape"
   width="40"
   height="60"
   id="svg2"
   version="1.1"
   inkscape:version="0.48.4 r9939"
   sodipodi:docname="space.svg">
  <defs
     id="defs4" />
  <sodipodi:namedview
     id="base"
     pagecolor="#ffffff"
     bordercolor="#666666"
     borderopacity="1.0"
     inkscape:pageopacity="0.0"
     inkscape:pageshadow="2"
     inkscape:zoom="7.919596"
     inkscape:cx="31.147852"
     inkscape:cy="24.83935"
     inkscape:document-units="px"
     inkscape:current-layer="layer1"
     showgrid="false"
     showguides="true"
     inkscape:guide-bbox="true"
     inkscape:window-width="1317"
     inkscape:window-height="744"
     inkscape:window-x="49"
     inkscape:window-y="24"
     inkscape:window-maximized="1">
    <sodipodi:guide
       orientation="0,1"
       position="0,60"
       id="guide2993" />
    <sodipodi:guide
       orientation="0,1"
       position="-9.217642,0"
       id="guide2999" />
    <sodipodi:guide
       orientation="1,0"
       position="10,72.723"
       id="guide3013" />
    <sodipodi:guide
       orientation="1,0"
       position="30,58.571429"
       id="guide3019" />
    <sodipodi:guide
       orientation="0,1"
       position="38.764604,30.052038"
       id="guide3021" />
  </sodipodi:namedview>
  <metadata
     id="metadata7">
    <rdf:RDF>
      <cc:Work
         rdf:about="">
        <dc:format>image/svg+xml</dc:format>
        <dc:type
           rdf:resource="http://purl.org/dc/dcmitype/StillImage" />
        <dc:title />
      </cc:Work>
    </rdf:RDF>
  </metadata>
  <g
     inkscape:label="Ebene 1"
     inkscape:groupmode="layer"
     id="layer1"
     transform="translate(0,-992.36218)">
    <path
       style="font-size:medium;font-style:normal;font-variant:normal;font-weight:normal;font-stretch:normal;text-indent:0;text-align:start;text-decoration:none;line-height:normal;letter-spacing:normal;word-spacing:normal;text-transform:none;direction:ltr;block-progression:tb;writing-mode:lr-tb;text-anchor:start;baseline-shift:baseline;color:#000000;fill:#000000;fill-opacity:1;stroke:none;stroke-width:4;marker:none;visibility:visible;display:inline;overflow:visible;enable-background:accumulate;font-family:Sans;-inkscape-font-specification:Sans"
       d="m 8,992.36218 0,60.00002 4,0 0,-60.00002 -4,0 z"
       id="path3031"
       inkscape:connector-curvature="0" />
    <path
       style="font-size:medium;font-style:normal;font-variant:normal;font-weight:normal;font-stretch:normal;text-indent:0;text-align:start;text-decoration:none;line-height:normal;letter-spacing:normal;word-spacing:normal;text-transform:none;direction:ltr;block-progression:tb;writing-mode:lr-tb;text-anchor:start;baseline-shift:baseline;color:#000000;fill:#000000;fill-opacity:1;stroke:none;stroke-width:4;marker:none;visibility:visible;display:inline;overflow:visible;enable-background:accumulate;font-family:Sans;-inkscape-font-specification:Sans"
       d="m 28,992.36218 0,60.00002 4,0 0,-60.00002 -4,0 z"
       id="path3033"
       inkscape:connector-curvature="0" />
    <path
       style="font-size:medium;font-style:normal;font-variant:normal;font-weight:normal;font-stretch:normal;text-indent:0;text-align:start;text-decoration:none;line-height:normal;letter-spacing:normal;word-spacing:normal;text-transform:none;direction:ltr;block-progression:tb;writing-mode:lr-tb;text-anchor:start;baseline-shift:baseline;color:#000000;fill:#000000;fill-opacity:1;stroke:none;stroke-width:4;marker:none;visibility:visible;display:inline;overflow:visible;enable-background:accumulate;font-family:Sans;-inkscape-font-specification:Sans"
       d="m -0.09375,1020.3622 0,4 10.09375,0 0,-4 -10.09375,0 z"
       id="path3035"
       inkscape:connector-curvature="0" />
    <path
       style="font-size:medium;font-style:normal;font-variant:normal;font-weight:normal;font-stretch:normal;text-indent:0;text-align:start;text-decoration:none;line-height:normal;letter-spacing:normal;word-spacing:normal;text-transform:none;direction:ltr;block-progression:tb;writing-mode:lr-tb;text-anchor:start;baseline-shift:baseline;color:#000000;fill:#000000;fill-opacity:1;stroke:none;stroke-width:4;marker:none;visibility:visible;display:inline;overflow:visible;enable-background:accumulate;font-family:Sans;-inkscape-font-specification:Sans"
       d="m 30,1020.3622 0,4 10,0 0,-4 -10,0 z"
       id="path3037"
       inkscape:connector-curvature="0" />
    <g
       style="font-size:22px;font-style:normal;font-variant:normal;font-weight:normal;font-stretch:normal;line-height:125%;letter-spacing:0px;word-spacing:0px;fill:#000000;fill-opacity:1;stroke:none;font-family:Ubuntu;-inkscape-font-specification:Ubuntu"
       id="text3660">
      <path
         d="m 15.965714,1029.7456 c -4e-6,0.396 -0.132004,0.7407 -0.396,1.034 -0.264003,0.2933 -0.623336,0.44 -1.078,0.44 -0.454669,0 -0.814002,-0.1467 -1.078,-0.44 -0.264001,-0.2933 -0.396001,-0.638 -0.396,-1.034 -10e-7,-0.396 0.131999,-0.7407 0.396,-1.034 0.263998,-0.2933 0.623331,-0.44 1.078,-0.44 0.454664,0 0.813997,0.1467 1.078,0.44 0.263996,0.2933 0.395996,0.638 0.396,1.034"
         style=""
         id="path3010" />
      <path
         d="m 21.379777,1029.7456 c -5e-6,0.396 -0.132004,0.7407 -0.396,1.034 -0.264004,0.2933 -0.623337,0.44 -1.078,0.44 -0.454669,0 -0.814002,-0.1467 -1.078,-0.44 -0.264002,-0.2933 -0.396002,-0.638 -0.396,-1.034 -2e-6,-0.396 0.131998,-0.7407 0.396,-1.034 0.263998,-0.2933 0.623331,-0.44 1.078,-0.44 0.454663,0 0.813996,0.1467 1.078,0.44 0.263996,0.2933 0.395995,0.638 0.396,1.034"
         style=""
         id="path3012" />
      <path
         d="m 26.793839,1029.7456 c -4e-6,0.396 -0.132004,0.7407 -0.396,1.034 -0.264003,0.2933 -0.623336,0.44 -1.078,0.44 -0.454669,0 -0.814002,-0.1467 -1.078,-0.44 -0.264001,-0.2933 -0.396001,-0.638 -0.396,-1.034 -1e-6,-0.396 0.131999,-0.7407 0.396,-1.034 0.263998,-0.2933 0.623331,-0.44 1.078,-0.44 0.454664,0 0.813997,0.1467 1.078,0.44 0.263996,0.2933 0.395996,0.638 0.396,1.034"
         style=""
         id="path3014" />
    </g>
  </g>
</svg>
